<?xml version="1.0" encoding="UTF-8" standalone="no"?>
<!-- Created with Inkscape (http://www.inkscape.org/) -->

<svg
   xmlns:dc="http://purl.org/dc/elements/1.1/"
   xmlns:cc="http://creativecommons.org/ns#"
   xmlns:rdf="http://www.w3.org/1999/02/22-rdf-syntax-ns#"
   xmlns:svg="http://www.w3.org/2000/svg"
   xmlns="http://www.w3.org/2000/svg"
   xmlns:xlink="http://www.w3.org/1999/xlink"
   xmlns:sodipodi="http://sodipodi.sourceforge.net/DTD/sodipodi-0.dtd"
   xmlns:inkscape="http://www.inkscape.org/namespaces/inkscape"
   width="902"
   height="270"
   id="svg2"
   version="1.1"
   inkscape:version="0.47 r22583"
   sodipodi:docname="Google play.svg">
  <defs
     id="defs4">
    <linearGradient
       id="linearGradient3698">
      <stop
         style="stop-color:#207bae;stop-opacity:1;"
         offset="0"
         id="stop3700" />
      <stop
         style="stop-color:#6bf7dc;stop-opacity:1;"
         offset="1"
         id="stop3702" />
    </linearGradient>
    <linearGradient
       id="linearGradient3666">
      <stop
         style="stop-color:#8238a7;stop-opacity:1;"
         offset="0"
         id="stop3668" />
      <stop
         style="stop-color:#e44145;stop-opacity:1;"
         offset="1"
         id="stop3670" />
    </linearGradient>
    <linearGradient
       id="linearGradient3632">
      <stop
         style="stop-color:#fe9778;stop-opacity:1;"
         offset="0"
         id="stop3634" />
      <stop
         style="stop-color:#f5d37c;stop-opacity:1;"
         offset="1"
         id="stop3636" />
    </linearGradient>
    <linearGradient
       id="linearGradient3614">
      <stop
         style="stop-color:#4cc3af;stop-opacity:1;"
         offset="0"
         id="stop3616" />
      <stop
         style="stop-color:#d5fca1;stop-opacity:1;"
         offset="1"
         id="stop3618" />
    </linearGradient>
    <linearGradient
       id="linearGradient3606">
      <stop
         style="stop-color:#000000;stop-opacity:0;"
         offset="0"
         id="stop3608" />
      <stop
         style="stop-color:#000000;stop-opacity:0;"
         offset="1"
         id="stop3610" />
    </linearGradient>
    <inkscape:perspective
       sodipodi:type="inkscape:persp3d"
       inkscape:vp_x="0 : 526.18109 : 1"
       inkscape:vp_y="0 : 1000 : 0"
       inkscape:vp_z="744.09448 : 526.18109 : 1"
       inkscape:persp3d-origin="372.04724 : 350.78739 : 1"
       id="perspective10" />
    <inkscape:perspective
       id="perspective2824"
       inkscape:persp3d-origin="0.5 : 0.33333333 : 1"
       inkscape:vp_z="1 : 0.5 : 1"
       inkscape:vp_y="0 : 1000 : 0"
       inkscape:vp_x="0 : 0.5 : 1"
       sodipodi:type="inkscape:persp3d" />
    <linearGradient
       inkscape:collect="always"
       xlink:href="#linearGradient3614"
       id="linearGradient3628"
       x1="59.5"
       y1="45.89286"
       x2="179.42857"
       y2="106.25"
       gradientUnits="userSpaceOnUse" />
    <linearGradient
       inkscape:collect="always"
       xlink:href="#linearGradient3632"
       id="linearGradient3662"
       x1="178.07141"
       y1="108.75"
       x2="203.75"
       y2="151.96428"
       gradientUnits="userSpaceOnUse" />
    <linearGradient
       inkscape:collect="always"
       xlink:href="#linearGradient3666"
       id="linearGradient3696"
       x1="63.428574"
       y1="226.65178"
       x2="167.19643"
       y2="152.72321"
       gradientUnits="userSpaceOnUse" />
    <linearGradient
       inkscape:collect="always"
       xlink:href="#linearGradient3698"
       id="linearGradient3714"
       x1="54.857143"
       y1="35.571426"
       x2="47.357143"
       y2="238.71429"
       gradientUnits="userSpaceOnUse" />
    <clipPath
       clipPathUnits="userSpaceOnUse"
       id="clipPath3716">
      <path
         style="fill:none;stroke:none"
         d="M 67.039901,45.741648 215.66757,127.25282 c 10.6066,5.05076 8.90196,10.85914 0.63134,15.27856 0,0 -149.115561,81.92696 -149.115561,81.92696 -5.806456,3.19017 -13.834668,0.90554 -13.518995,-7.04941 0,0 0.145502,-163.054854 0.145502,-163.054854 0.0079,-8.902539 7.482705,-11.713836 13.230045,-8.612428 z"
         id="path3718"
         sodipodi:nodetypes="ccczcsc" />
    </clipPath>
    <clipPath
       clipPathUnits="userSpaceOnUse"
       id="clipPath3720">
      <path
         style="fill:none;stroke:none"
         d="M 67.039901,45.741648 215.66757,127.25282 c 10.6066,5.05076 8.90196,10.85914 0.63134,15.27856 0,0 -149.115561,81.92696 -149.115561,81.92696 -5.806456,3.19017 -13.834668,0.90554 -13.518995,-7.04941 0,0 0.145502,-163.054854 0.145502,-163.054854 0.0079,-8.902539 7.482705,-11.713836 13.230045,-8.612428 z"
         id="path3722"
         sodipodi:nodetypes="ccczcsc" />
    </clipPath>
    <clipPath
       clipPathUnits="userSpaceOnUse"
       id="clipPath3724">
      <path
         style="fill:none;stroke:none"
         d="M 67.039901,45.741648 215.66757,127.25282 c 10.6066,5.05076 8.90196,10.85914 0.63134,15.27856 0,0 -149.115561,81.92696 -149.115561,81.92696 -5.806456,3.19017 -13.834668,0.90554 -13.518995,-7.04941 0,0 0.145502,-163.054854 0.145502,-163.054854 0.0079,-8.902539 7.482705,-11.713836 13.230045,-8.612428 z"
         id="path3726"
         sodipodi:nodetypes="ccczcsc" />
    </clipPath>
    <clipPath
       clipPathUnits="userSpaceOnUse"
       id="clipPath3728">
      <path
         style="fill:none;stroke:none"
         d="M 67.039901,45.741648 215.66757,127.25282 c 10.6066,5.05076 8.90196,10.85914 0.63134,15.27856 0,0 -149.115561,81.92696 -149.115561,81.92696 -5.806456,3.19017 -13.834668,0.90554 -13.518995,-7.04941 0,0 0.145502,-163.054854 0.145502,-163.054854 0.0079,-8.902539 7.482705,-11.713836 13.230045,-8.612428 z"
         id="path3730"
         sodipodi:nodetypes="ccczcsc" />
    </clipPath>
  </defs>
  <sodipodi:namedview
     id="base"
     pagecolor="#ffffff"
     bordercolor="#666666"
     borderopacity="1.0"
     inkscape:pageopacity="0.0"
     inkscape:pageshadow="2"
     inkscape:zoom="1.4"
     inkscape:cx="414.26355"
     inkscape:cy="125.9108"
     inkscape:document-units="px"
     inkscape:current-layer="layer1"
     showgrid="false"
     inkscape:window-width="1600"
     inkscape:window-height="848"
     inkscape:window-x="-8"
     inkscape:window-y="-8"
     inkscape:window-maximized="1" />
  <metadata
     id="metadata7">
    <rdf:RDF>
      <cc:Work
         rdf:about="">
        <dc:format>image/svg+xml</dc:format>
        <dc:type
           rdf:resource="http://purl.org/dc/dcmitype/StillImage" />
        <dc:title></dc:title>
      </cc:Work>
    </rdf:RDF>
  </metadata>
  <g
     inkscape:label="Ebene 1"
     inkscape:groupmode="layer"
     id="layer1"
     transform="translate(219.57143,-300.21933)">
    <image
       y="300.21933"
       x="-219.57143"
       id="image2826"
       height="270"
       width="902"
       xlink:href="file:///C:/Users/flying%20sheep/Pictures/Google_Play_logo_gallery_post.jpg"
       style="fill:none;fill-opacity:1;opacity:0" />
    <path
       style="fill:url(#linearGradient3628);stroke:none;stroke-width:1px;stroke-linecap:butt;stroke-linejoin:miter;stroke-opacity:1;fill-opacity:1"
       d="M 52.857143,37.857143 150.80357,135.98214 202.5,83.571428"
       id="path3604"
       transform="translate(-219.57143,300.21933)"
       sodipodi:nodetypes="ccc"
       clip-path="url(#clipPath3728)" />
    <path
       style="fill:url(#linearGradient3662);stroke:none;stroke-width:1px;stroke-linecap:butt;stroke-linejoin:miter;stroke-opacity:1;fill-opacity:1"
       d="M 256.78571,27.857142 150.71428,135.89286 230,216.78571"
       id="path3630"
       transform="translate(-219.57143,300.21933)"
       sodipodi:nodetypes="ccc"
       clip-path="url(#clipPath3724)" />
    <path
       style="fill:url(#linearGradient3696);stroke:none;stroke-width:1px;stroke-linecap:butt;stroke-linejoin:miter;stroke-opacity:1;fill-opacity:1"
       d="M 47.857143,238.21428 150.71429,135.80357 182.76786,168.57143"
       id="path3664"
       transform="translate(-219.57143,300.21933)"
       sodipodi:nodetypes="ccc"
       clip-path="url(#clipPath3720)" />
    <path
       style="fill:url(#linearGradient3714);stroke:none;stroke-width:1px;stroke-linecap:butt;stroke-linejoin:miter;stroke-opacity:1;fill-opacity:1"
       d="m 51.071429,36.071428 99.642861,99.642862 -102.857147,102.5"
       id="path3706"
       transform="translate(-219.57143,300.21933)"
       clip-path="url(#clipPath3716)" />
    <g
       style="font-size:120px;font-style:normal;font-weight:normal;fill:#7f8084;fill-opacity:1;stroke:none;font-family:Bitstream Vera Sans"
       id="text2845">
      <path
         d="m 120.20547,469.85135 -17.15698,3.95874 c -3.520572,0.56152 -6.861023,1.04248 -10.02136,1.44287 -3.160457,0.40039 -6.420342,0.60058 -9.779663,0.60059 -5.520064,-10e-6 -10.480386,-0.64026 -14.880981,-1.92078 -4.400666,-1.28052 -8.300809,-2.98095 -11.70044,-5.10132 -3.399678,-2.12035 -6.299456,-4.62035 -8.699341,-7.5 -2.399915,-2.87962 -4.379893,-5.93931 -5.939941,-9.17908 -1.560066,-3.23972 -2.700202,-6.53988 -3.42041,-9.90051 -0.72022,-3.36056 -1.080327,-6.63997 -1.080323,-9.83826 -4e-6,-5.84223 1.099848,-11.46295 3.299561,-16.86218 2.199697,-5.3991 5.360094,-10.17876 9.481201,-14.33899 4.121073,-4.16008 9.181492,-7.48039 15.181275,-9.96093 5.999717,-2.48039 12.838699,-3.72062 20.516967,-3.72071 3.281194,9e-5 6.461733,0.22043 9.541626,0.66101 3.079769,0.44076 6.019829,1.06027 8.820189,1.85852 4.56047,1.28182 8.00041,2.62277 10.31983,4.02283 2.31925,1.40023 4.15885,2.53975 5.51879,3.41858 l -9.95727,9.4812 -4.20044,0.95947 2.99927,-4.80102 c -1.04012,-0.9594 -2.29988,-2.09893 -3.7793,-3.41858 -1.47956,-1.31951 -3.23981,-2.55974 -5.280761,-3.7207 -2.041081,-1.16081 -4.441591,-2.14104 -7.201538,-2.94068 -2.760067,-0.79948 -5.899102,-1.19926 -9.417114,-1.19934 -4.721726,8e-5 -9.122356,0.86007 -13.201905,2.57996 -4.079623,1.72005 -7.599517,4.14009 -10.559692,7.26013 -2.960229,3.12019 -5.280173,6.84027 -6.959839,11.16028 -1.679705,4.32012 -2.519548,9.11931 -2.519531,14.39758 -1.7e-5,5.68119 0.979596,11.142 2.938843,16.38245 1.959206,5.2405 4.779027,9.90053 8.459472,13.9801 3.680388,4.0796 8.140833,7.33949 13.381348,9.77966 5.240431,2.44019 11.140694,3.66028 17.700806,3.66028 3.840268,0 6.880426,-0.31982 9.120481,-0.95947 2.23992,-0.63965 4.2791,-1.31958 6.11756,-2.0398 l 0,-19.32129 -18.120121,0.95948 9.60205,-5.15992 25.440671,0 -3.12011,2.99927 c -0.40048,0.40042 -0.6611,0.70071 -0.78186,0.90088 -0.12094,0.20022 -0.26071,0.5408 -0.41932,1.02173 -0.0807,0.55911 -0.14107,1.49844 -0.18127,2.81799 -0.0404,1.3196 -0.0605,2.29922 -0.0604,2.93885 z"
         style="fill:#7f8084;font-family:Catull;-inkscape-font-specification:Catull"
         id="path2860" />
      <path
         d="m 191.48843,446.45047 c -6e-5,3.52053 -0.67999,7.02089 -2.03979,10.5011 -1.35992,3.48024 -3.31976,6.60035 -5.87952,9.36035 -2.55987,2.76001 -5.73979,5 -9.53979,6.71997 -3.80009,1.71997 -8.1403,2.57996 -13.02063,2.57996 -4.79984,0 -9.0198,-0.83985 -12.65991,-2.51953 -3.64016,-1.67969 -6.68032,-3.87939 -9.12049,-6.59913 -2.44019,-2.71971 -4.29993,-5.75987 -5.57922,-9.12048 -1.2793,-3.36057 -1.91895,-6.72056 -1.91895,-10.07995 0,-3.92087 0.75989,-7.64096 2.27967,-11.16028 1.51976,-3.51925 3.65965,-6.61922 6.41967,-9.29993 2.76,-2.68061 6.04002,-4.80097 9.84009,-6.36108 3.80002,-1.56001 7.9791,-2.34004 12.53723,-2.34009 4.40182,5e-5 8.38253,0.80022 11.94214,2.40051 3.55952,1.60039 6.57954,3.72075 9.06006,6.36108 2.48041,2.64043 4.38043,5.66045 5.70007,9.06006 1.31952,3.3997 1.97931,6.89884 1.97937,10.49744 z m -27.7185,25.56152 c 2.3193,10e-6 4.59896,-0.54016 6.83899,-1.62048 2.23994,-1.08032 4.03987,-2.57995 5.39978,-4.4989 1.44038,-1.92138 2.40046,-4.04174 2.88025,-6.36109 0.47968,-2.31931 0.71955,-4.63865 0.7196,-6.958 -5e-5,-2.64158 -0.34002,-5.72202 -1.0199,-9.24134 -0.67998,-3.51925 -1.79997,-6.87923 -3.35998,-10.07995 -1.56011,-3.20064 -3.62004,-5.90083 -6.17981,-8.10059 -2.55985,-2.19965 -5.67936,-3.29951 -9.35852,-3.29956 -2.00198,5e-5 -3.9429,0.36016 -5.82276,1.08032 -1.8799,0.72027 -3.54006,1.72002 -4.98046,2.99927 -2.31936,2.08013 -3.81899,4.40007 -4.49891,6.95984 -0.67994,2.55985 -1.01991,5.12028 -1.01989,7.68127 -2e-5,2.95902 0.38023,6.25858 1.14074,9.89869 0.76048,3.64015 1.96043,7.05995 3.59986,10.2594 1.63938,3.19947 3.75913,5.87952 6.35925,8.04016 2.60007,2.16064 5.70065,3.24097 9.30176,3.24096 z"
         style="fill:#7f8084;font-family:Catull;-inkscape-font-specification:Catull"
         id="path2862" />
      <path
         d="m 258.98843,446.45047 c -6e-5,3.52053 -0.67999,7.02089 -2.03979,10.5011 -1.35992,3.48024 -3.31976,6.60035 -5.87952,9.36035 -2.55987,2.76001 -5.73979,5 -9.53979,6.71997 -3.80009,1.71997 -8.1403,2.57996 -13.02063,2.57996 -4.79984,0 -9.0198,-0.83985 -12.65991,-2.51953 -3.64016,-1.67969 -6.68032,-3.87939 -9.12049,-6.59913 -2.44019,-2.71971 -4.29993,-5.75987 -5.57922,-9.12048 -1.2793,-3.36057 -1.91895,-6.72056 -1.91895,-10.07995 0,-3.92087 0.75989,-7.64096 2.27967,-11.16028 1.51976,-3.51925 3.65965,-6.61922 6.41967,-9.29993 2.76,-2.68061 6.04002,-4.80097 9.84009,-6.36108 3.80002,-1.56001 7.9791,-2.34004 12.53723,-2.34009 4.40182,5e-5 8.38253,0.80022 11.94214,2.40051 3.55952,1.60039 6.57954,3.72075 9.06006,6.36108 2.48041,2.64043 4.38043,5.66045 5.70007,9.06006 1.31952,3.3997 1.97931,6.89884 1.97937,10.49744 z m -27.7185,25.56152 c 2.3193,10e-6 4.59896,-0.54016 6.83899,-1.62048 2.23994,-1.08032 4.03987,-2.57995 5.39978,-4.4989 1.44038,-1.92138 2.40046,-4.04174 2.88025,-6.36109 0.47968,-2.31931 0.71955,-4.63865 0.7196,-6.958 -5e-5,-2.64158 -0.34002,-5.72202 -1.0199,-9.24134 -0.67998,-3.51925 -1.79997,-6.87923 -3.35998,-10.07995 -1.56011,-3.20064 -3.62004,-5.90083 -6.17981,-8.10059 -2.55985,-2.19965 -5.67936,-3.29951 -9.35852,-3.29956 -2.00198,5e-5 -3.9429,0.36016 -5.82276,1.08032 -1.8799,0.72027 -3.54006,1.72002 -4.98046,2.99927 -2.31936,2.08013 -3.81899,4.40007 -4.49891,6.95984 -0.67994,2.55985 -1.01991,5.12028 -1.01989,7.68127 -2e-5,2.95902 0.38023,6.25858 1.14074,9.89869 0.76048,3.64015 1.96043,7.05995 3.59986,10.2594 1.63938,3.19947 3.75913,5.87952 6.35925,8.04016 2.60007,2.16064 5.70065,3.24097 9.30176,3.24096 z"
         style="fill:#7f8084;font-family:Catull;-inkscape-font-specification:Catull"
         id="path2864" />
      <path
         d="m 304.76846,424.01273 c 0.72018,0.55913 1.56002,1.29887 2.51953,2.21923 0.95943,0.92046 1.87923,2.04046 2.7594,3.35999 0.88008,1.31962 1.64058,2.85954 2.2815,4.61975 0.64082,1.76029 0.96125,3.7598 0.9613,5.99854 -5e-5,2.24124 -0.2802,4.20169 -0.84045,5.88134 -0.56035,1.67972 -1.32085,3.17996 -2.2815,4.50074 -0.96074,1.32082 -2.04106,2.52077 -3.24096,3.59985 -1.2,1.07912 -2.43962,2.09841 -3.71888,3.05786 -0.80082,0.8008 -1.5607,1.64125 -2.27966,2.52136 -0.71903,0.88014 -1.07853,2.00014 -1.07849,3.35999 -4e-5,1.35987 0.35946,2.42005 1.07849,3.18054 0.71896,0.76051 1.3995,1.42029 2.04163,1.97937 l 4.31762,3.36182 c 1.27926,1.11816 2.53902,2.23755 3.7793,3.35815 1.24019,1.1206 2.32051,2.32055 3.24097,3.59985 0.92036,1.2793 1.66071,2.71911 2.22107,4.31946 0.56025,1.60033 0.8404,3.44054 0.84045,5.52063 -5e-5,2.80028 -0.67998,5.56029 -2.03979,8.28003 -1.35992,2.7197 -3.36004,5.13974 -6.00037,7.26013 -2.64042,2.12033 -5.94059,3.8403 -9.90051,5.15992 -3.96,1.31954 -8.49979,1.97933 -13.61939,1.97937 -4.3213,-4e-5 -8.10182,-0.47978 -11.34155,-1.43921 -3.23975,-0.95951 -5.93934,-2.23942 -8.09875,-3.83972 -2.15943,-1.60038 -3.75916,-3.42044 -4.7992,-5.46021 -1.04004,-2.03982 -1.56005,-4.18032 -1.56006,-6.42151 1e-5,-2.15822 0.65979,-4.61732 1.97937,-7.37732 1.31958,-2.76002 3.73962,-5.18006 7.26013,-7.26013 1.83838,-1.12061 3.81774,-2.02088 5.93811,-2.70081 2.12035,-0.67993 4.22057,-1.22009 6.30066,-1.62048 2.08006,-0.40039 4.0399,-0.68054 5.87952,-0.84045 1.83957,-0.15992 3.4393,-0.28015 4.79919,-0.36072 -0.87893,-1.11816 -1.69863,-2.29736 -2.4591,-3.5376 -0.76053,-1.24023 -1.14077,-2.78075 -1.14075,-4.62158 -2e-5,-1.04003 0.12021,-1.90001 0.36072,-2.57996 0.24045,-0.67992 0.5206,-1.37999 0.84045,-2.10022 -0.63967,0.0806 -1.27932,0.14101 -1.91894,0.18128 -0.63967,0.0403 -1.28054,0.0604 -1.92261,0.0604 -3.19826,2e-5 -6.03761,-0.54014 -8.51807,-1.62048 -2.48048,-1.08031 -4.56055,-2.50059 -6.24023,-4.26086 -1.67969,-1.76024 -2.9596,-3.77989 -3.83972,-6.05896 -0.88013,-2.27903 -1.3202,-4.57944 -1.32019,-6.90125 -10e-6,-2.80026 0.64025,-5.62008 1.92077,-8.45947 1.28052,-2.83932 3.20007,-5.3796 5.75867,-7.62085 3.43993,-2.80024 7.05992,-4.60017 10.85999,-5.39978 3.80002,-0.79951 7.34067,-1.19929 10.62194,-1.19934 l 24.71924,0 -7.67944,4.32129 z m -13.19824,33.83789 c 1.51853,1e-5 3.01816,-0.31981 4.4989,-0.95948 1.48068,-0.63963 2.70077,-1.43919 3.66028,-2.39868 1.35983,-1.35984 2.19967,-2.87961 2.51953,-4.55932 0.31979,-1.67967 0.4797,-3.07981 0.47974,-4.20044 -4e-5,-2.16062 -0.31987,-4.52084 -0.95947,-7.08069 -0.63969,-2.55978 -1.59977,-4.95968 -2.88025,-7.19971 -1.28056,-2.23994 -2.86075,-4.10029 -4.7406,-5.58105 -1.87992,-1.48067 -4.06009,-2.22102 -6.54053,-2.22107 -1.59915,5e-5 -3.15859,0.36015 -4.67835,1.08032 -1.51979,0.72026 -2.76063,1.68096 -3.72253,2.88208 -1.04005,1.27934 -1.73952,2.67888 -2.09839,4.19861 -0.3589,1.51981 -0.53834,3.08048 -0.53833,4.682 -1e-5,1.99955 0.29967,4.23893 0.89905,6.71814 0.59935,2.47928 1.51915,4.79922 2.7594,6.95984 1.24021,2.16067 2.80027,3.98074 4.68017,5.46021 1.87986,1.47951 4.10032,2.21925 6.66138,2.21924 z m 17.75757,35.28076 c -5e-5,-1.51857 -0.26006,-2.89797 -0.78003,-4.13819 -0.52006,-1.24024 -1.30009,-2.46034 -2.34009,-3.66027 -1.04008,-1.19996 -2.39994,-2.4402 -4.07959,-3.72071 -1.67972,-1.28052 -3.63895,-2.72034 -5.87768,-4.31945 -0.48099,-0.0806 -0.90152,-0.12086 -1.2616,-0.12085 -0.36014,-1e-5 -0.86002,-1e-5 -1.49963,0 -0.23929,-1e-5 -0.79898,0.0201 -1.67908,0.0604 -0.88016,0.0403 -1.92019,0.12024 -3.12012,0.23987 -1.19997,0.11962 -2.48049,0.31921 -3.84155,0.59875 -1.36111,0.27954 -2.68129,0.61951 -3.96057,1.0199 -0.63967,0.24169 -1.53933,0.62255 -2.69898,1.14258 -1.15968,0.52001 -2.29981,1.25976 -3.42041,2.21924 -1.12061,0.95946 -2.10084,2.15941 -2.94067,3.59985 -0.83985,1.44042 -1.25977,3.23973 -1.25977,5.39795 0,4.32127 1.90002,7.84177 5.70008,10.56152 3.80003,2.7197 8.93979,4.07956 15.41931,4.07959 5.76168,-3e-5 10.14217,-1.22012 13.14148,-3.66028 2.99922,-2.44021 4.49885,-5.54018 4.4989,-9.29992 z"
         style="fill:#7f8084;font-family:Catull;-inkscape-font-specification:Catull"
         id="path2866" />
      <path
         d="m 347.67007,474.05179 -21.24023,0 c 0.72021,-0.87891 1.28051,-1.59851 1.68091,-2.15882 0.40038,-0.5603 0.7202,-1.04064 0.95947,-1.44104 0.23925,-0.40038 0.39916,-0.80077 0.47974,-1.20117 0.0806,-0.40038 0.12084,-0.9204 0.12085,-1.56006 l 0,-19.55932 c -1e-5,-4.71921 0.0397,-10.19894 0.11902,-16.43921 0.0793,-6.24019 0.19957,-12.48041 0.36071,-18.7207 0.0806,-3.03949 0.2008,-6.31952 0.36072,-9.84009 0.1599,-3.52044 0.28014,-6.68083 0.36072,-9.4812 l -9.36035,0 8.9978,-4.31763 17.16064,0 c -0.95949,0.55917 -1.73952,1.0389 -2.34008,1.43921 -0.60061,0.40047 -1.12063,0.84054 -1.56006,1.32019 -0.43948,0.47982 -0.77944,1.05965 -1.0199,1.7395 -0.2405,0.68001 -0.3998,1.54 -0.4779,2.57996 -0.48098,4.64118 -0.78128,10.48163 -0.90088,17.52136 -0.11965,7.03985 -0.17947,14.83952 -0.17945,23.39905 l 0,27.7185 c -2e-5,2.32179 0.29966,3.82264 0.89905,4.50257 0.59934,0.67993 1.89878,1.09924 3.89832,1.25793 1.04001,0.16114 2.06052,0.26185 3.06152,0.30213 1.00095,0.0403 2.02145,0.13977 3.06152,0.29846 z"
         style="fill:#7f8084;font-family:Catull;-inkscape-font-specification:Catull"
         id="path2868" />
      <path
         d="m 397.95084,471.41141 c -0.6397,0.40039 -1.29949,0.78064 -1.97937,1.14074 -0.67998,0.36011 -1.33977,0.70008 -1.97937,1.0199 -2.002,0.87891 -3.98259,1.47888 -5.94178,1.79993 -1.95926,0.32104 -3.85928,0.48156 -5.70007,0.48157 -0.9595,-10e-6 -2.03921,-0.0403 -3.23914,-0.12085 -1.19997,-0.0806 -2.50002,-0.26063 -3.90014,-0.54016 -1.40017,-0.27955 -2.83999,-0.73975 -4.31946,-1.38062 -1.47951,-0.64087 -2.97975,-1.52038 -4.50073,-2.63855 -2.16066,-1.52099 -4.00087,-3.26171 -5.52063,-5.22217 -1.51979,-1.96044 -2.77955,-4.06065 -3.7793,-6.30066 -0.99976,-2.23997 -1.73951,-4.53977 -2.21924,-6.89941 -0.47974,-2.3596 -0.71961,-4.65879 -0.7196,-6.89758 -1e-5,-4.64108 0.85998,-8.70175 2.57995,-12.18201 1.71997,-3.48018 3.89953,-6.36043 6.5387,-8.64075 2.63914,-2.28022 5.5786,-4.00019 8.81836,-5.15991 3.23972,-1.15961 6.41965,-1.73945 9.53979,-1.7395 2.16062,5e-5 4.30112,0.28021 6.42151,0.84045 2.12032,0.56036 4.10091,1.40081 5.94178,2.52136 1.51851,0.95953 2.75813,1.99896 3.71887,3.11829 0.96064,1.11943 1.76081,2.21929 2.40051,3.29956 0.6396,1.08037 1.11933,2.08073 1.43921,3.0011 0.31977,0.92045 0.59931,1.74076 0.83862,2.46094 l -28.19824,11.40014 -9.2395,0.71778 c 0.7202,3.84035 1.87986,7.24062 3.479,10.2008 1.5991,2.96022 3.49913,5.48036 5.70008,7.56043 2.2009,2.08008 4.62094,3.66028 7.26013,4.7406 2.63912,1.08033 5.39913,1.62049 8.28003,1.62048 3.03951,10e-6 5.71956,-0.44006 8.04016,-1.32019 2.3205,-0.88012 4.52082,-1.8402 6.60095,-2.88025 z m -11.2793,-35.7605 c 1.11813,-0.40035 1.9775,-0.82027 2.57812,-1.25977 0.60055,-0.43941 0.90084,-1.09859 0.90088,-1.97754 -4e-5,-1.20112 -0.31986,-2.42183 -0.95947,-3.6621 -0.63969,-1.24019 -1.49967,-2.34004 -2.57996,-3.29957 -1.08035,-0.95942 -2.34073,-1.75959 -3.78112,-2.40051 -1.44046,-0.64082 -2.96024,-0.96125 -4.55933,-0.9613 -1.2012,5e-5 -2.60134,0.26006 -4.20044,0.78003 -1.59914,0.52007 -3.09877,1.42034 -4.4989,2.7008 -1.40016,1.28057 -2.60011,3.00054 -3.59985,5.15992 -0.99977,2.15946 -1.49965,4.83951 -1.49964,8.04016 -1e-5,1.04007 0.0397,2.08011 0.11902,3.12011 0.0793,1.04007 0.15929,2.1204 0.23987,3.24097 z"
         style="fill:#7f8084;font-family:Catull;-inkscape-font-specification:Catull"
         id="path2870" />
    </g>
    <g
       style="font-size:115px;font-style:normal;font-variant:normal;font-weight:300;font-stretch:normal;text-align:start;line-height:100%;writing-mode:lr-tb;text-anchor:start;fill:#7f8084;fill-opacity:1;stroke:none;font-family:Segoe UI Light;-inkscape-font-specification:'Segoe UI Light, Light'"
       id="text2849">
      <path
         d="m 441.17105,462.14246 -0.22461,0 0,36.66748 -5.16601,0 0,-83.94776 5.16601,0 0,11.84815 0.22461,0 c 2.0589,-4.2301 5.0069,-7.49629 8.844,-9.79859 3.83704,-2.30219 8.05782,-3.45331 12.66235,-3.45337 7.29976,6e-5 12.99922,2.51756 17.09839,7.55249 4.09906,5.03504 6.14862,11.87626 6.14868,20.52369 -6e-5,9.62079 -2.3491,17.39788 -7.04712,23.33129 -4.69813,5.93344 -10.90295,8.90015 -18.6145,8.90015 -8.61005,0 -14.97398,-3.87451 -19.0918,-11.62353 z m -0.22461,-21.39405 0,7.24366 c -10e-6,5.76499 1.81558,10.71575 5.44678,14.85229 3.63116,4.13656 8.4041,6.20484 14.31885,6.20483 5.87724,10e-6 10.65018,-2.51749 14.31884,-7.55249 3.66857,-5.03497 5.50288,-11.65158 5.50293,-19.84985 -5e-5,-7.18746 -1.68462,-12.89628 -5.05371,-17.12646 -3.36918,-4.2301 -7.86137,-6.34516 -13.47656,-6.34522 -6.70087,6e-5 -11.8856,2.24615 -15.5542,6.73828 -3.66863,4.49223 -5.50294,9.77055 -5.50293,15.83496 z"
         style=""
         id="path2873" />
      <path
         d="m 500.24332,472.36218 0,-85.12695 5.16601,0 0,85.12695 z"
         style=""
         id="path2875" />
      <path
         d="m 558.19254,472.36218 0,-11.51123 -0.22461,0 c -1.83436,3.93067 -4.50159,7.06584 -8.00171,9.40552 -3.5002,2.33968 -7.38406,3.50952 -11.65161,3.50952 -5.46552,0 -9.78924,-1.53483 -12.9712,-4.60449 -3.18197,-3.06966 -4.77295,-6.94416 -4.77294,-11.62354 -10e-6,-10.03252 6.64468,-16.09697 19.93408,-18.19336 l 17.68799,-2.63916 c -5e-5,-12.35346 -4.64197,-18.53021 -13.92579,-18.53027 -6.32652,6e-5 -12.48455,2.54563 -18.47412,7.63672 l 0,-6.23291 c 2.13378,-1.68452 5.02562,-3.12576 8.67554,-4.32373 3.64988,-1.19786 7.08453,-1.79682 10.30396,-1.79688 5.91467,6e-5 10.49108,1.83437 13.72924,5.50293 3.23807,3.66867 4.85713,9.00314 4.85718,16.00342 l 0,37.39746 z m -15.83497,-28.63769 c -6.02704,0.86103 -10.25717,2.25548 -12.69043,4.18335 -2.43328,1.92792 -3.64991,5.06309 -3.6499,9.40551 -10e-6,3.40659 1.1324,6.21421 3.39722,8.42286 2.26479,2.20866 5.41868,3.31299 9.46167,3.31298 5.54033,10e-6 10.14482,-2.04955 13.81348,-6.14868 3.66857,-4.0991 5.50288,-9.38678 5.50293,-15.86303 l 0,-5.61524 z"
         style=""
         id="path2877" />
      <path
         d="m 594.69156,484.09802 c -2.09638,5.166 -4.41734,9.00307 -6.96289,11.51123 -2.54559,2.50812 -5.82114,3.76218 -9.82666,3.76221 -1.68458,-3e-5 -3.18197,-0.26207 -4.49219,-0.78613 l 0,-5.16602 c 1.34765,0.52407 2.91992,0.78611 4.7168,0.78613 4.60448,-2e-5 8.23566,-3.18198 10.89355,-9.54589 l 5.33447,-12.74659 -21.7871,-57.05078 5.78369,0 17.35107,46.83106 c 0.37433,1.01075 0.63637,1.77816 0.78613,2.30224 0.14972,0.71127 0.31818,1.34767 0.50537,1.90918 l 0.22461,0 1.34766,-3.87451 18.53027,-47.16797 5.61524,0 z"
         style=""
         id="path2879" />
    </g>
  </g>
</svg>
